<svg width="25" height="25" viewBox="0 0 25 25" fill="none" xmlns="http://www.w3.org/2000/svg">
<path d="M12.78 10.64C14.2566 10.64 15.4753 11.8588 15.4753 13.3353C15.4753 14.8353 14.2566 16.0306 12.78 16.0306C11.28 16.0306 10.0847 14.8353 10.0847 13.3353C10.0847 11.8588 11.28 10.64 12.78 10.64ZM12.78 15.0931C13.741 15.0931 14.5144 14.3197 14.5144 13.3353C14.5144 12.3744 13.741 11.601 12.78 11.601C11.7957 11.601 11.0222 12.3744 11.0222 13.3353C11.0222 14.3197 11.8191 15.0931 12.78 15.0931ZM16.2019 10.5463C16.2019 10.8978 15.9207 11.1791 15.5691 11.1791C15.2175 11.1791 14.9363 10.8978 14.9363 10.5463C14.9363 10.1947 15.2175 9.91345 15.5691 9.91345C15.9207 9.91345 16.2019 10.1947 16.2019 10.5463ZM17.9832 11.1791C18.03 12.0463 18.03 14.6478 17.9832 15.515C17.9363 16.3588 17.7488 17.0853 17.1394 17.7181C16.53 18.3275 15.78 18.515 14.9363 18.5619C14.0691 18.6088 11.4675 18.6088 10.6003 18.5619C9.75659 18.515 9.03003 18.3275 8.39722 17.7181C7.78784 17.0853 7.60034 16.3588 7.55347 15.515C7.50659 14.6478 7.50659 12.0463 7.55347 11.1791C7.60034 10.3353 7.78784 9.58533 8.39722 8.97595C9.03003 8.36658 9.75659 8.17908 10.6003 8.1322C11.4675 8.08533 14.0691 8.08533 14.9363 8.1322C15.78 8.17908 16.53 8.36658 17.1394 8.97595C17.7488 9.58533 17.9363 10.3353 17.9832 11.1791ZM16.8582 16.4291C17.1394 15.7494 17.0691 14.1088 17.0691 13.3353C17.0691 12.5853 17.1394 10.9447 16.8582 10.2416C16.6707 9.79626 16.3191 9.42126 15.8738 9.2572C15.1707 8.97595 13.53 9.04626 12.78 9.04626C12.0066 9.04626 10.366 8.97595 9.68628 9.2572C9.21753 9.4447 8.86597 9.79626 8.67847 10.2416C8.39722 10.9447 8.46753 12.5853 8.46753 13.3353C8.46753 14.1088 8.39722 15.7494 8.67847 16.4291C8.86597 16.8978 9.21753 17.2494 9.68628 17.4369C10.366 17.7181 12.0066 17.6478 12.78 17.6478C13.53 17.6478 15.1707 17.7181 15.8738 17.4369C16.3191 17.2494 16.6941 16.8978 16.8582 16.4291Z" fill="white"/>
<path d="M7.53003 19.0072H18.03V19.5931H7.53003V19.0072Z" fill="white"/>
</svg>
