<svg width="25" height="25" viewBox="0 0 25 25" fill="none" xmlns="http://www.w3.org/2000/svg">
<path d="M17.3479 10.8978C17.3479 11.015 17.3479 11.1088 17.3479 11.226C17.3479 14.4838 14.887 18.2103 10.3635 18.2103C8.95728 18.2103 7.66821 17.8119 6.59009 17.1088C6.77759 17.1322 6.96509 17.1556 7.17603 17.1556C8.32446 17.1556 9.37915 16.7572 10.2229 16.101C9.14478 16.0775 8.23071 15.3744 7.92603 14.39C8.09009 14.4135 8.23071 14.4369 8.39478 14.4369C8.60571 14.4369 8.84009 14.39 9.02759 14.3431C7.90259 14.1088 7.05884 13.1244 7.05884 11.9291V11.9056C7.38696 12.0931 7.7854 12.1869 8.18384 12.2103C7.50415 11.765 7.08228 11.015 7.08228 10.1713C7.08228 9.70251 7.19946 9.28064 7.4104 8.92908C8.62915 10.4056 10.4573 11.39 12.4963 11.5072C12.4495 11.3197 12.426 11.1322 12.426 10.9447C12.426 9.58533 13.5276 8.48376 14.887 8.48376C15.5901 8.48376 16.2229 8.76501 16.6917 9.2572C17.2307 9.14001 17.7698 8.92908 18.2385 8.64783C18.051 9.23376 17.676 9.70251 17.1604 10.0072C17.6526 9.96033 18.1448 9.8197 18.5667 9.6322C18.2385 10.1244 17.8167 10.5463 17.3479 10.8978Z" fill="white"/>
<path d="M6.59009 19.0072H18.5901V19.5931H6.59009V19.0072Z" fill="white"/>
</svg>
