<svg width="24" height="25" viewBox="0 0 24 25" fill="none" xmlns="http://www.w3.org/2000/svg">
<path d="M18.1172 10.265C18.3984 11.2494 18.3984 13.3588 18.3984 13.3588C18.3984 13.3588 18.3984 15.4447 18.1172 16.4525C17.9766 17.015 17.5312 17.4369 16.9922 17.5775C15.9844 17.8353 12 17.8353 12 17.8353C12 17.8353 7.99219 17.8353 6.98438 17.5775C6.44531 17.4369 6 17.015 5.85938 16.4525C5.57812 15.4447 5.57812 13.3588 5.57812 13.3588C5.57812 13.3588 5.57812 11.2494 5.85938 10.265C6 9.70251 6.44531 9.2572 6.98438 9.11658C7.99219 8.83533 12 8.83533 12 8.83533C12 8.83533 15.9844 8.83533 16.9922 9.11658C17.5312 9.2572 17.9766 9.70251 18.1172 10.265ZM10.6875 15.2572L14.0156 13.3588L10.6875 11.4603V15.2572Z" fill="white"/>
<path d="M5.25 19.0072H18.75V19.5931H5.25V19.0072Z" fill="white"/>
</svg>
